<svg width="920" height="18" viewBox="0 0 920 18" fill="none" xmlns="http://www.w3.org/2000/svg">
<line x1="434.5" y1="9.5" x2="56" y2="9.5" stroke="white" stroke-opacity="0.5"/>
<path d="M450.63 18V14.5029H451.476L452.712 16.4571H455.966V15.3257L454.599 14.7857C453.265 14.2286 452.246 13.3671 451.541 12.2014C450.847 11.0272 450.5 9.53144 450.5 7.71429C450.5 5.5543 451.378 3.72859 453.135 2.23714C454.892 0.745731 457.18 1.79931e-05 460 0C462.82 1.79931e-05 465.108 0.745731 466.865 2.23714C468.622 3.72859 469.5 5.5543 469.5 7.71429C469.5 9.53144 469.148 11.0272 468.443 12.2014C467.749 13.3671 466.735 14.2286 465.401 14.7857L464.034 15.3257V16.4571H467.288L468.524 14.5029H469.37V18H461.432V15.0171C463.21 14.4 464.479 13.4057 465.238 12.0343C465.997 10.6629 466.377 9.22287 466.377 7.71429C466.377 6.06858 465.856 4.5943 464.815 3.29143C463.774 1.98859 462.169 1.33716 460 1.33714C457.831 1.33716 456.226 1.98859 455.185 3.29143C454.144 4.5943 453.623 6.06858 453.623 7.71429C453.623 9.22287 454.003 10.6629 454.762 12.0343C455.521 13.4057 456.79 14.4 458.568 15.0171V18H450.63Z" fill="white"/>
<line x1="864" y1="9.5" x2="485.5" y2="9.5" stroke="white" stroke-opacity="0.5"/>
</svg>
